<?xml version="1.0" encoding="UTF-8"?>
<svg id="Layer_1" data-name="Layer 1" xmlns="http://www.w3.org/2000/svg" viewBox="0 0 100 67.5">
  <defs>
    <style>
      .border { fill: #ffe5ff; }
      .body { fill: #f3c; }
    </style>
  </defs>
  <path class="border" d="m99.82,32.73c-.4-3.76-1.21-6.79-2.47-9.25-1.48-2.88-3.55-5.1-6.15-6.62.15-.97.18-1.98.07-3-.3-2.8-1.38-5.39-3.14-7.51-1.51-1.8-3.37-3.23-5.55-4.28-1.93-.94-4.13-1.57-6.51-1.86-1.09-.14-2.23-.21-3.38-.21h0c-1.05,0-2.14.06-3.23.17-3.92.42-7.49,1.62-10.61,3.56-1.83,1.15-3.44,2.54-4.88,4.12-1.1-.52-2.3-.92-3.59-1.18-.97-.2-1.94-.29-2.9-.29-1.9,0-3.73.38-5.44,1.14-1.22.54-2.38,1.22-3.47,2.03-.56-1.05-1.22-2.02-1.98-2.92-1.89-2.23-4.5-3.73-7.55-4.34-1.29-.26-2.57-.39-3.8-.39-1.02,0-2.02.09-2.99.27-2.31.43-4.38,1.29-6.19,2.56-1.74,1.22-3.22,2.78-4.37,4.62-1.08,1.73-1.85,3.69-2.28,5.82-.43,2.17-1,4.18-1.67,5.99-.78,2.09-1.6,4.16-2.44,6.15-.92,2.18-1.8,4.36-2.64,6.55-.96,2.51-1.73,5.2-2.29,7.99-.34,1.71-.45,3.54-.32,5.44.14,2.03.58,4.02,1.33,5.89.87,2.18,2.18,4.13,3.91,5.79,2.02,1.94,4.52,3.22,7.44,3.81,1.86.37,3.62.56,5.25.56,1.12,0,2.21-.09,3.24-.27,2.76-.48,5.17-1.46,7.17-2.9.1-.07.19-.14.28-.21,1.21,1.8,2.78,3.34,4.65,4.58,1.92,1.27,4.07,2.14,6.4,2.61,1.2.24,2.4.36,3.58.36,1.11,0,2.22-.11,3.29-.32,2.66-.54,5.06-1.78,7.17-3.72,1.49-1.37,2.73-3.13,3.84-5.16,1.92,1.74,4.07,3.16,6.44,4.18,2.73,1.18,5.7,1.77,8.84,1.77.9,0,1.83-.05,2.76-.15,3.96-.42,7.61-1.61,10.83-3.54,3.16-1.89,5.83-4.32,7.96-7.23,2.09-2.85,3.63-6.09,4.57-9.63.94-3.52,1.21-7.22.81-10.99Z"/>
  <g>
    <path class="body" d="m27.43,10.31c1.25.25,2.23.79,2.93,1.62s1.23,1.78,1.6,2.88c.36,1.09.62,2.25.78,3.47.16,1.22.3,2.35.44,3.4s.32,1.94.54,2.67.6,1.15,1.15,1.26c.42.08.88-.16,1.4-.72.51-.57,1.08-1.29,1.69-2.19.61-.9,1.29-1.87,2.03-2.9.74-1.04,1.56-1.98,2.44-2.82.89-.84,1.85-1.49,2.89-1.95s2.19-.56,3.44-.31,2.18.68,2.89,1.31c.71.63,1.2,1.42,1.47,2.38.27.96.37,2.09.3,3.39-.08,1.31-.28,2.76-.6,4.37-.22,1.09-.26,2.43-.13,4.01.13,1.58.28,3.29.45,5.13.16,1.84.27,3.77.32,5.78.05,2.02-.13,4-.52,5.96-.53,2.64-1.19,4.79-2,6.47-.8,1.67-1.7,2.97-2.71,3.89-1,.92-2.08,1.49-3.25,1.73-1.16.23-2.39.22-3.67-.04-1.32-.26-2.48-.74-3.5-1.41-1.02-.67-1.83-1.49-2.46-2.45-.62-.96-1.04-2.05-1.25-3.26-.21-1.21-.17-2.51.1-3.89.37-1.86.84-3.38,1.41-4.53.56-1.16,1.14-2.19,1.74-3.09.59-.9,1.15-1.78,1.65-2.65.51-.87.89-1.96,1.16-3.28.15-.74.14-1.34-.01-1.81-.16-.47-.43-.74-.81-.82-.35-.07-.7.14-1.05.64s-.7,1.14-1.06,1.92c-.36.78-.73,1.63-1.11,2.56-.39.93-.81,1.77-1.28,2.53-.47.76-.99,1.36-1.56,1.82-.58.46-1.22.61-1.92.47s-1.25-.53-1.62-1.18c-.37-.64-.65-1.41-.84-2.3s-.31-1.84-.35-2.85-.09-1.95-.14-2.81c-.05-.86-.11-1.58-.19-2.17-.08-.58-.25-.9-.51-.96-.32-.06-.61.03-.88.28-.27.24-.5.57-.69.96-.2.39-.36.83-.49,1.31-.13.48-.23.89-.3,1.24-.26,1.29-.27,2.5-.03,3.63.24,1.14.54,2.26.9,3.37s.67,2.22.91,3.32.24,2.28,0,3.53-.65,2.43-1.21,3.54c-.56,1.11-1.33,2.02-2.33,2.74-.99.72-2.25,1.21-3.77,1.47-1.52.26-3.35.18-5.5-.25-1.38-.28-2.51-.84-3.39-1.69-.88-.85-1.54-1.82-1.97-2.9-.43-1.09-.69-2.23-.77-3.42s-.02-2.28.18-3.27c.47-2.35,1.11-4.57,1.91-6.66s1.65-4.19,2.54-6.29c.89-2.1,1.74-4.25,2.57-6.48.83-2.22,1.5-4.64,2.02-7.24.23-1.16.63-2.19,1.2-3.09.56-.91,1.27-1.66,2.13-2.25.85-.6,1.84-1,2.97-1.21,1.12-.21,2.36-.17,3.71.1Z"/>
    <path class="body" d="m55.23,33.52c-.39-3.68-.33-7.01.18-9.98.51-2.97,1.41-5.53,2.71-7.68,1.3-2.15,2.98-3.87,5.05-5.16,2.07-1.29,4.45-2.08,7.15-2.37,1.66-.18,3.24-.17,4.74.01,1.5.19,2.82.56,3.96,1.11,1.15.55,2.09,1.27,2.82,2.15.73.88,1.16,1.92,1.29,3.13.14,1.34-.48,2.48-1.88,3.44-1.4.96-3.31,1.56-5.75,1.82-1.43.15-2.79.41-4.09.78-1.29.37-2.41.93-3.35,1.69-.94.76-1.65,1.75-2.13,2.97s-.62,2.76-.42,4.62c.08.78.31,1.51.67,2.18.37.67.85,1.24,1.44,1.73.59.48,1.3.83,2.13,1.06.83.23,1.73.29,2.71.18.84-.09,1.68-.3,2.5-.61s1.56-.69,2.2-1.12,1.15-.9,1.53-1.4c.37-.5.54-.96.49-1.38-.1-.95-1.13-1.32-3.08-1.11-.55.06-1.13.16-1.72.28-.6.13-1.17.22-1.72.28-1.2.13-2.1,0-2.68-.38-.58-.38-.92-1.05-1.02-2s.06-1.72.47-2.32c.41-.6.96-1.07,1.65-1.41s1.44-.58,2.24-.73c.81-.15,1.57-.27,2.28-.34,2.47-.26,4.64-.36,6.5-.29,1.87.06,3.46.46,4.79,1.2,1.33.73,2.38,1.86,3.17,3.39.79,1.53,1.32,3.65,1.61,6.36s.1,5.44-.58,8c-.68,2.56-1.77,4.86-3.26,6.9s-3.35,3.72-5.56,5.04c-2.21,1.32-4.71,2.13-7.51,2.43s-5.27-.04-7.51-1c-2.24-.96-4.19-2.44-5.84-4.42-1.66-1.98-3.01-4.42-4.06-7.33-1.05-2.9-1.76-6.13-2.14-9.69Z"/>
  </g>
</svg>